PathFileType	4	(X/Y/Z)	9_coords_data.trc
DataRate	CameraRate	NumFrames	NumMarkers	Units	OrigDataRate	OrigDataStartFrame	OrigNumFrames
30.0	30.0	4	21	m	30.0	1	56
Frame#	Time	THUMB_TIP	THUMB_IP	THUMB_MCP	THUMB_CMC	INDEX_TIP	INDEX_DIP	INDEX_PIP	INDEX_MCP	MIDDLE_TIP	MIDDLE_DIP	MIDDLE_PIP	MIDDLE_MCP	RING_TIP	RING_DIP	RING_PIP	RING_MCP	PINKY_TIP	PINKY_DIP	PINKY_PIP	PINKY_MCP	WRIST
X1	Y1	Z1	X2	Y2	Z2	X3	Y3	Z3	X4	Y4	Z4	X5	Y5	Z5	X6	Y6	Z6	X7	Y7	Z7	X8	Y8	Z8	X9	Y9	Z9	X10	Y10	Z10	X11	Y11	Z11	X12	Y12	Z12	X13	Y13	Z13	X14	Y14	Z14	X15	Y15	Z15	X16	Y16	Z16	X17	Y17	Z17	X18	Y18	Z18	X19	Y19	Z19	X20	Y20	Z20	X21	Y21	Z21
0	-2.749317978547796e-18	0.5385214995293577	-0.027357999514477815	-0.13668067375591858	0.5158333044361786	-0.030085675045388505	-0.13427119463961185	0.48983516664436966	-0.025300924590154872	-0.1178388182308493	0.480052875594119	-0.02554083529984119	-0.07431710842230016	0.5430039597610566	0.077325632363344	-0.16135357777994025	0.5353646272584208	0.06376016156689912	-0.15210054579118265	0.5233379808258419	0.047716710340668156	-0.13693554393370533	0.5056585019804707	0.018230934709595692	-0.11180267387893178	0.5307950117717821	-0.024047293148917293	-0.11929924025949257	0.543174894777199	-0.011784169180986126	-0.12423424657350446	0.5503607661096462	0.01612364510010289	-0.11988376323877403	0.5155833320122541	0.023290772455091924	-0.09276715791880608	0.5374540725700864	-0.02693109548074224	-0.11176486999121105	0.5516770507725448	-0.016192152640821522	-0.10904788678675148	0.5607262182263355	0.004123722099320326	-0.09784262994292492	0.5290937545292487	0.01467341781678655	-0.07497754750875546	0.6026949549973976	0.01861572044445592	-0.058551181127036445	0.5869620795261349	0.011882837532809054	-0.058931860918721324	0.5667971282976099	0.006225168463566244	-0.05745621134848611	0.5332099660845024	-0.005633725632978925	-0.0631265390530682	0.462283081001861	-0.023011742144276925	-0.051989820119430985
1	0.03333333333333339	0.5402640694181017	-0.02620279946959536	-0.13601055306702292	0.5175239498745743	-0.02860232101192073	-0.1337457662086199	0.4913234225829448	-0.023872374517179273	-0.11762187164814014	0.47972881892629726	-0.025487243370845736	-0.07457715809780135	0.5432211104656341	0.0780227939219772	-0.16084454987479824	0.5356215069252506	0.06446672751885085	-0.15154513646840434	0.5236769021802241	0.04823627400106589	-0.13651487934844403	0.5055189211387476	0.019144228781401096	-0.11126459769784924	0.530410791102864	-0.023889670463884016	-0.11912908574300862	0.5429164290009846	-0.011721279420864206	-0.12398081535060673	0.5500424333142454	0.01620523140704022	-0.11965188875082167	0.5156185479114642	0.02375293435254555	-0.09218961981647106	0.5372918642825283	-0.026133801519449107	-0.11134775437854832	0.5515500828611075	-0.015369074463743027	-0.10893448804811307	0.560553206801202	0.005011005560241921	-0.09780901832610739	0.5288596746629557	0.015162922091657038	-0.07484862971134032	0.6025715683465906	0.019493567556343017	-0.058373685442358325	0.5867957123623204	0.012853236425530268	-0.05854212070211168	0.5666801327844193	0.0069197852083896505	-0.05755742079912718	0.5330287135539065	-0.004850127837972562	-0.06302867126436412	0.4622830810018608	-0.023011742144276925	-0.051989820119430985
2	0.06666666666666676	0.5414864490976015	-0.02537558710858756	-0.1354593226787396	0.5187104593496594	-0.027511796697649138	-0.13329347420914534	0.49236226839850206	-0.022825373046854724	-0.11739912719624096	0.47948021498949855	-0.025442946074612838	-0.074771776687302	0.5434202721632948	0.0785521341978278	-0.16040208789080557	0.5358455828005108	0.06500132829402816	-0.1510747227529503	0.5239547013378256	0.048628411783843695	-0.1361568014503391	0.5054276342911488	0.019830567881762518	-0.11083747943652306	0.5301354620702063	-0.023795341948270043	-0.11901960214576168	0.5427346595800623	-0.011690972509286301	-0.12378871763946014	0.5498117778629242	0.01624766060691607	-0.11945781399141664	0.5156602660874688	0.024089291112305178	-0.09173902982854454	0.5371854965508915	-0.02555253698112525	-0.11102015668474818	0.5514609693720596	-0.014763221035868912	-0.10882891567437697	0.5604305428517745	0.005661781134827959	-0.09775886522647809	0.5286924249622454	0.015521677362970498	-0.07473289829345614	0.6024762614243839	0.020107059377507897	-0.05818418384569335	0.5866656422597996	0.013547780392445086	-0.05819763109783088	0.5665933236002736	0.007419511057670247	-0.05759900133670409	0.5328920469897581	-0.00427011862125648	-0.06293378941038491	0.4622830810018609	-0.023011742144276925	-0.051989820119430985
3	0.10000000000000014	0.5422974839031973	-0.024813474172245553	-0.13506285744664492	0.5194984061487354	-0.026749480673054493	-0.13295242327927037	0.49304971695430766	-0.022095194760312187	-0.11721633537474291	0.4793019675556006	-0.025407829193532794	-0.07490893839050156	0.5436134318573896	0.0789321539767126	-0.160030773354071	0.5360495895168416	0.06538377720762656	-0.15069108513817098	0.5241862720045558	0.048909020615167886	-0.13586361314116713	0.5053799841736573	0.020320941024791872	-0.11051245266761633	0.5299638445786848	-0.023753782567017878	-0.11895887470407251	0.5426256471951607	-0.011683755600735979	-0.12364856590228934	0.5496646546124927	0.01626116707507297	-0.11929618480433773	0.5157085944427647	0.02431896101073272	-0.09139984354530772	0.5371272394763763	-0.025161302444497213	-0.11077511354901837	0.5514067402607182	-0.014347762427439847	-0.10873471906523025	0.5603538524378564	0.0061054033749788905	-0.09769854348904106	0.5285845385088553	0.015766480500103763	-0.07463135650703184	0.6024193565838247	0.020484834785244432	-0.057995301230607144	0.5865797447798797	0.01399651293181392	-0.05790377294743343	0.566538615422714	0.007745993055548461	-0.057593685273115314	0.5327980580320737	-0.003868333509235544	-0.06284398587550705	0.4622830810018608	-0.023011742144276925	-0.051989820119430985
